<mxfile host="drawio-plugin" modified="2023-06-02T12:06:29.511Z" agent="5.0 (Windows NT 6.2; Win64; x64) AppleWebKit/537.36 (KHTML, like Gecko) Chrome/104.0.5112.102 Safari/537.36" etag="sCOMlU_ruH2fpT4gAVE5" version="20.5.3" type="embed"><diagram id="7lGQXFfnrCM3LfUt94uL" name="Page-1"><mxGraphModel dx="1227" dy="815" grid="1" gridSize="10" guides="1" tooltips="1" connect="1" arrows="1" fold="1" page="1" pageScale="1" pageWidth="850" pageHeight="1100" math="0" shadow="0"><root><mxCell id="0"/><mxCell id="1" parent="0"/><mxCell id="hQnvw_6kECJiyrSSrivd-7" style="edgeStyle=orthogonalEdgeStyle;rounded=0;orthogonalLoop=1;jettySize=auto;html=1;exitX=0;exitY=1;exitDx=0;exitDy=0;entryX=0;entryY=0.5;entryDx=0;entryDy=0;strokeColor=default;endArrow=none;endFill=0;" parent="1" source="hQnvw_6kECJiyrSSrivd-1" target="hQnvw_6kECJiyrSSrivd-4" edge="1"><mxGeometry relative="1" as="geometry"><Array as="points"><mxPoint x="180" y="180"/><mxPoint x="180" y="215"/></Array></mxGeometry></mxCell><mxCell id="hQnvw_6kECJiyrSSrivd-1" value="&lt;div&gt;PLC&lt;/div&gt;" style="rounded=0;whiteSpace=wrap;html=1;" parent="1" vertex="1"><mxGeometry x="170" y="120" width="120" height="60" as="geometry"/></mxCell><mxCell id="hQnvw_6kECJiyrSSrivd-4" value="&lt;div&gt;Axis 1&lt;/div&gt;" style="rounded=1;whiteSpace=wrap;html=1;" parent="1" vertex="1"><mxGeometry x="200" y="200" width="120" height="30" as="geometry"/></mxCell><mxCell id="hQnvw_6kECJiyrSSrivd-10" style="edgeStyle=orthogonalEdgeStyle;rounded=0;orthogonalLoop=1;jettySize=auto;html=1;exitX=0;exitY=0.5;exitDx=0;exitDy=0;strokeColor=default;endArrow=none;endFill=0;" parent="1" source="hQnvw_6kECJiyrSSrivd-8" edge="1"><mxGeometry relative="1" as="geometry"><mxPoint x="180" y="210" as="targetPoint"/></mxGeometry></mxCell><mxCell id="hQnvw_6kECJiyrSSrivd-8" value="&lt;div&gt;Axis &lt;i&gt;2&lt;/i&gt;&lt;br&gt;&lt;/div&gt;" style="rounded=1;whiteSpace=wrap;html=1;" parent="1" vertex="1"><mxGeometry x="200" y="270" width="120" height="30" as="geometry"/></mxCell><mxCell id="hQnvw_6kECJiyrSSrivd-11" style="edgeStyle=orthogonalEdgeStyle;rounded=0;orthogonalLoop=1;jettySize=auto;html=1;exitX=0;exitY=0.5;exitDx=0;exitDy=0;strokeColor=default;endArrow=none;endFill=0;" parent="1" source="hQnvw_6kECJiyrSSrivd-9" edge="1"><mxGeometry relative="1" as="geometry"><mxPoint x="180" y="260" as="targetPoint"/></mxGeometry></mxCell><mxCell id="hQnvw_6kECJiyrSSrivd-12" value="&lt;i&gt;device&lt;/i&gt;" style="text;html=1;strokeColor=none;fillColor=none;align=center;verticalAlign=middle;whiteSpace=wrap;rounded=0;" parent="1" vertex="1"><mxGeometry x="280" y="180" width="40" height="20" as="geometry"/></mxCell><mxCell id="hQnvw_6kECJiyrSSrivd-13" value="&lt;i&gt;device&lt;/i&gt;" style="text;html=1;strokeColor=none;fillColor=none;align=center;verticalAlign=middle;whiteSpace=wrap;rounded=0;" parent="1" vertex="1"><mxGeometry x="280" y="250" width="40" height="20" as="geometry"/></mxCell><mxCell id="hQnvw_6kECJiyrSSrivd-15" value="&lt;i&gt;controller&lt;/i&gt;" style="text;html=1;strokeColor=none;fillColor=none;align=center;verticalAlign=middle;whiteSpace=wrap;rounded=0;" parent="1" vertex="1"><mxGeometry x="230" y="100" width="60" height="20" as="geometry"/></mxCell><mxCell id="hQnvw_6kECJiyrSSrivd-22" style="edgeStyle=orthogonalEdgeStyle;rounded=0;orthogonalLoop=1;jettySize=auto;html=1;entryX=0.5;entryY=1;entryDx=0;entryDy=0;strokeColor=default;endArrow=none;endFill=0;" parent="1" source="hQnvw_6kECJiyrSSrivd-18" target="hQnvw_6kECJiyrSSrivd-4" edge="1"><mxGeometry relative="1" as="geometry"/></mxCell><mxCell id="hQnvw_6kECJiyrSSrivd-18" value="GSD A" style="whiteSpace=wrap;html=1;shape=mxgraph.basic.document" parent="1" vertex="1"><mxGeometry x="340" y="230" width="50" height="40" as="geometry"/></mxCell><mxCell id="hQnvw_6kECJiyrSSrivd-21" style="edgeStyle=orthogonalEdgeStyle;rounded=0;orthogonalLoop=1;jettySize=auto;html=1;entryX=0.5;entryY=1;entryDx=0;entryDy=0;strokeColor=default;endArrow=none;endFill=0;" parent="1" source="hQnvw_6kECJiyrSSrivd-20" target="hQnvw_6kECJiyrSSrivd-8" edge="1"><mxGeometry relative="1" as="geometry"/></mxCell><mxCell id="hQnvw_6kECJiyrSSrivd-20" value="GSD B" style="whiteSpace=wrap;html=1;shape=mxgraph.basic.document" parent="1" vertex="1"><mxGeometry x="340" y="300" width="50" height="40" as="geometry"/></mxCell><mxCell id="hQnvw_6kECJiyrSSrivd-25" value="Ubuntu VM" style="swimlane;startSize=0;" parent="1" vertex="1"><mxGeometry x="160" y="360" width="630" height="540" as="geometry"><mxRectangle x="160" y="350" width="50" height="40" as="alternateBounds"/></mxGeometry></mxCell><mxCell id="hQnvw_6kECJiyrSSrivd-9" value="&lt;div&gt;pnet library&lt;/div&gt;" style="rounded=1;whiteSpace=wrap;html=1;" parent="hQnvw_6kECJiyrSSrivd-25" vertex="1"><mxGeometry x="40" y="60" width="120" height="60" as="geometry"/></mxCell><mxCell id="hQnvw_6kECJiyrSSrivd-16" value="&lt;i&gt;virtual device&lt;/i&gt;" style="text;html=1;strokeColor=none;fillColor=none;align=center;verticalAlign=middle;whiteSpace=wrap;rounded=0;" parent="hQnvw_6kECJiyrSSrivd-25" vertex="1"><mxGeometry x="80" y="40" width="80" height="20" as="geometry"/></mxCell><mxCell id="hQnvw_6kECJiyrSSrivd-24" style="edgeStyle=orthogonalEdgeStyle;rounded=0;orthogonalLoop=1;jettySize=auto;html=1;exitX=0;exitY=0.5;exitDx=0;exitDy=0;exitPerimeter=0;strokeColor=default;endArrow=none;endFill=0;entryX=0.5;entryY=1;entryDx=0;entryDy=0;" parent="hQnvw_6kECJiyrSSrivd-25" source="hQnvw_6kECJiyrSSrivd-23" target="hQnvw_6kECJiyrSSrivd-9" edge="1"><mxGeometry relative="1" as="geometry"/></mxCell><mxCell id="hQnvw_6kECJiyrSSrivd-23" value="GSD C" style="whiteSpace=wrap;html=1;shape=mxgraph.basic.document" parent="hQnvw_6kECJiyrSSrivd-25" vertex="1"><mxGeometry x="180" y="120" width="50" height="40" as="geometry"/></mxCell><mxCell id="3" value="" style="swimlane;startSize=0;" vertex="1" parent="hQnvw_6kECJiyrSSrivd-25"><mxGeometry x="310" y="50" width="310" height="150" as="geometry"><mxRectangle x="300" y="50" width="50" height="40" as="alternateBounds"/></mxGeometry></mxCell><mxCell id="kAhAt_XjZ6wsbJzak4BN-1" value="&lt;div&gt;Python&lt;/div&gt;&lt;div&gt;&lt;pre&gt;gantry.go_to(t, x, y, z, v, a)&lt;br&gt;gantry.set_speed_limits(v_x, v_y, v_z)&lt;br&gt;gantry.set_acceleration_limits(a_x, a_y, a_z)&lt;/pre&gt;&lt;/div&gt;" style="verticalLabelPosition=bottom;html=1;verticalAlign=top;align=center;strokeColor=none;fillColor=#00BEF2;shape=mxgraph.azure.computer;pointerEvents=1;" parent="3" vertex="1"><mxGeometry x="130" y="10" width="50" height="45" as="geometry"/></mxCell><mxCell id="kAhAt_XjZ6wsbJzak4BN-2" style="edgeStyle=orthogonalEdgeStyle;rounded=0;orthogonalLoop=1;jettySize=auto;html=1;startArrow=classic;startFill=1;exitX=0;exitY=0.25;exitDx=0;exitDy=0;" parent="hQnvw_6kECJiyrSSrivd-25" source="3" target="hQnvw_6kECJiyrSSrivd-9" edge="1"><mxGeometry relative="1" as="geometry"/></mxCell><mxCell id="kAhAt_XjZ6wsbJzak4BN-5" value="UDP" style="edgeLabel;html=1;align=center;verticalAlign=middle;resizable=0;points=[];" parent="kAhAt_XjZ6wsbJzak4BN-2" vertex="1" connectable="0"><mxGeometry x="-0.2667" y="-2" relative="1" as="geometry"><mxPoint x="-31" y="2" as="offset"/></mxGeometry></mxCell><mxCell id="19" value="x_X, x_Y, v_x, v_y, a_x, a_y" style="edgeStyle=orthogonalEdgeStyle;rounded=0;orthogonalLoop=1;jettySize=auto;html=1;" edge="1" parent="hQnvw_6kECJiyrSSrivd-25" source="15" target="3"><mxGeometry relative="1" as="geometry"/></mxCell><mxCell id="15" value="Real hardware interface node&amp;nbsp;" style="swimlane;fontStyle=0;childLayout=stackLayout;horizontal=1;startSize=30;horizontalStack=0;resizeParent=1;resizeParentMax=0;resizeLast=0;collapsible=1;marginBottom=0;whiteSpace=wrap;html=1;" vertex="1" parent="hQnvw_6kECJiyrSSrivd-25"><mxGeometry x="410" y="240" width="190" height="90" as="geometry"/></mxCell><mxCell id="16" value="Publish: setpoints" style="text;strokeColor=none;fillColor=none;align=left;verticalAlign=middle;spacingLeft=4;spacingRight=4;overflow=hidden;points=[[0,0.5],[1,0.5]];portConstraint=eastwest;rotatable=0;whiteSpace=wrap;html=1;" vertex="1" parent="15"><mxGeometry y="30" width="190" height="30" as="geometry"/></mxCell><mxCell id="17" value="Subscribe: jointstates" style="text;strokeColor=none;fillColor=none;align=left;verticalAlign=middle;spacingLeft=4;spacingRight=4;overflow=hidden;points=[[0,0.5],[1,0.5]];portConstraint=eastwest;rotatable=0;whiteSpace=wrap;html=1;" vertex="1" parent="15"><mxGeometry y="60" width="190" height="30" as="geometry"/></mxCell><mxCell id="20" value="Simulated hardware interface node" style="swimlane;fontStyle=0;childLayout=stackLayout;horizontal=1;startSize=30;horizontalStack=0;resizeParent=1;resizeParentMax=0;resizeLast=0;collapsible=1;marginBottom=0;whiteSpace=wrap;html=1;" vertex="1" parent="hQnvw_6kECJiyrSSrivd-25"><mxGeometry x="75" y="240" width="190" height="60" as="geometry"/></mxCell><mxCell id="22" value="..." style="text;strokeColor=none;fillColor=none;align=left;verticalAlign=middle;spacingLeft=4;spacingRight=4;overflow=hidden;points=[[0,0.5],[1,0.5]];portConstraint=eastwest;rotatable=0;whiteSpace=wrap;html=1;" vertex="1" parent="20"><mxGeometry y="30" width="190" height="30" as="geometry"/></mxCell><mxCell id="29" value="" style="edgeStyle=orthogonalEdgeStyle;rounded=0;orthogonalLoop=1;jettySize=auto;html=1;endArrow=none;endFill=0;" edge="1" parent="hQnvw_6kECJiyrSSrivd-25" source="23" target="27"><mxGeometry relative="1" as="geometry"/></mxCell><mxCell id="42" style="edgeStyle=orthogonalEdgeStyle;rounded=0;orthogonalLoop=1;jettySize=auto;html=1;entryX=1.011;entryY=0.2;entryDx=0;entryDy=0;entryPerimeter=0;startArrow=none;startFill=0;endArrow=none;endFill=0;" edge="1" parent="hQnvw_6kECJiyrSSrivd-25" source="23" target="22"><mxGeometry relative="1" as="geometry"/></mxCell><mxCell id="43" value="List with positions, velocities and accelerations" style="edgeStyle=orthogonalEdgeStyle;rounded=0;orthogonalLoop=1;jettySize=auto;html=1;entryX=0;entryY=0;entryDx=0;entryDy=0;entryPerimeter=0;startArrow=none;startFill=0;endArrow=none;endFill=0;" edge="1" parent="hQnvw_6kECJiyrSSrivd-25" source="23" target="17"><mxGeometry x="-0.5833" relative="1" as="geometry"><mxPoint as="offset"/></mxGeometry></mxCell><mxCell id="23" value="URC server" style="swimlane;fontStyle=0;childLayout=stackLayout;horizontal=1;startSize=30;horizontalStack=0;resizeParent=1;resizeParentMax=0;resizeLast=0;collapsible=1;marginBottom=0;whiteSpace=wrap;html=1;" vertex="1" parent="hQnvw_6kECJiyrSSrivd-25"><mxGeometry x="240" y="400" width="140" height="90" as="geometry"/></mxCell><mxCell id="24" value="Path planning" style="text;strokeColor=none;fillColor=none;align=left;verticalAlign=middle;spacingLeft=4;spacingRight=4;overflow=hidden;points=[[0,0.5],[1,0.5]];portConstraint=eastwest;rotatable=0;whiteSpace=wrap;html=1;" vertex="1" parent="23"><mxGeometry y="30" width="140" height="30" as="geometry"/></mxCell><mxCell id="25" value="Visualisation" style="text;strokeColor=none;fillColor=none;align=left;verticalAlign=middle;spacingLeft=4;spacingRight=4;overflow=hidden;points=[[0,0.5],[1,0.5]];portConstraint=eastwest;rotatable=0;whiteSpace=wrap;html=1;" vertex="1" parent="23"><mxGeometry y="60" width="140" height="30" as="geometry"/></mxCell><mxCell id="27" value="URDF - Collistion meshes -Visualisation meshes" style="shape=note;whiteSpace=wrap;html=1;backgroundOutline=1;darkOpacity=0.05;" vertex="1" parent="hQnvw_6kECJiyrSSrivd-25"><mxGeometry x="440" y="400" width="100" height="100" as="geometry"/></mxCell><mxCell id="41" value="Go from A to B" style="edgeStyle=orthogonalEdgeStyle;rounded=0;orthogonalLoop=1;jettySize=auto;html=1;entryX=0.536;entryY=0.967;entryDx=0;entryDy=0;entryPerimeter=0;startArrow=none;startFill=0;endArrow=none;endFill=0;" edge="1" parent="1" source="34" target="25"><mxGeometry relative="1" as="geometry"/></mxCell><mxCell id="34" value="URC client" style="swimlane;fontStyle=0;childLayout=stackLayout;horizontal=1;startSize=30;horizontalStack=0;resizeParent=1;resizeParentMax=0;resizeLast=0;collapsible=1;marginBottom=0;whiteSpace=wrap;html=1;" vertex="1" parent="1"><mxGeometry x="200" y="920" width="140" height="60" as="geometry"/></mxCell><mxCell id="35" value="...." style="text;strokeColor=none;fillColor=none;align=left;verticalAlign=middle;spacingLeft=4;spacingRight=4;overflow=hidden;points=[[0,0.5],[1,0.5]];portConstraint=eastwest;rotatable=0;whiteSpace=wrap;html=1;" vertex="1" parent="34"><mxGeometry y="30" width="140" height="30" as="geometry"/></mxCell><mxCell id="40" value="Go from A to B" style="edgeStyle=orthogonalEdgeStyle;rounded=0;orthogonalLoop=1;jettySize=auto;html=1;entryX=0.521;entryY=1;entryDx=0;entryDy=0;entryPerimeter=0;startArrow=none;startFill=0;endArrow=none;endFill=0;" edge="1" parent="1" source="39" target="35"><mxGeometry relative="1" as="geometry"/></mxCell><mxCell id="39" value="Actor" style="shape=umlActor;verticalLabelPosition=bottom;verticalAlign=top;html=1;outlineConnect=0;" vertex="1" parent="1"><mxGeometry x="460" y="960" width="50" height="100" as="geometry"/></mxCell></root></mxGraphModel></diagram></mxfile>